<svg xmlns="http://www.w3.org/2000/svg" width="720" height="180" viewBox="0 0 720 180" dir="rtl">
  <rect width="720" height="180" fill="#F8F7F9"/>
  <rect x="20" y="40" rx="16" width="150" height="80" fill="#5B2482"/>
  <text x="95" y="78" text-anchor="middle" fill="#fff" font-family="Cairo, sans-serif" font-size="15" font-weight="700">clients/slug.json</text>
  <text x="95" y="100" text-anchor="middle" fill="#F2C66D" font-family="Cairo, sans-serif" font-size="11">الاسم · الألوان · اللوجو</text>
  <polygon points="185,80 205,80 195,95" fill="#E21B6D"/>
  <line x1="170" y1="80" x2="195" y2="80" stroke="#E21B6D" stroke-width="3"/>
  <rect x="220" y="40" rx="16" width="160" height="80" fill="#E21B6D"/>
  <text x="300" y="78" text-anchor="middle" fill="#fff" font-family="Cairo, sans-serif" font-size="14" font-weight="700">apply-brand.mjs</text>
  <text x="300" y="100" text-anchor="middle" fill="#fff" font-family="Cairo, sans-serif" font-size="11">حقن الهوية</text>
  <line x1="380" y1="80" x2="405" y2="80" stroke="#5B2482" stroke-width="3"/>
  <polygon points="395,70 415,80 395,90" fill="#5B2482"/>
  <rect x="430" y="18" rx="12" width="120" height="44" fill="#fff" stroke="#D8C4E9"/>
  <text x="490" y="45" text-anchor="middle" fill="#3A124D" font-family="Cairo, sans-serif" font-size="12" font-weight="700">index.html</text>
  <rect x="430" y="68" rx="12" width="120" height="44" fill="#fff" stroke="#D8C4E9"/>
  <text x="490" y="95" text-anchor="middle" fill="#3A124D" font-family="Cairo, sans-serif" font-size="12" font-weight="700">manifest + icons</text>
  <rect x="430" y="118" rx="12" width="120" height="44" fill="#fff" stroke="#D8C4E9"/>
  <text x="490" y="145" text-anchor="middle" fill="#3A124D" font-family="Cairo, sans-serif" font-size="12" font-weight="700">sw.js إشعارات</text>
  <rect x="570" y="55" rx="16" width="130" height="70" fill="#0d9488"/>
  <text x="635" y="88" text-anchor="middle" fill="#fff" font-family="Cairo, sans-serif" font-size="14" font-weight="700">.env.slug</text>
  <text x="635" y="108" text-anchor="middle" fill="#fff" font-family="Cairo, sans-serif" font-size="11">COACH_PIN فقط هنا</text>
</svg>
